<svg width="100" height="100" viewBox="0 0 100 100" fill="none" xmlns="http://www.w3.org/2000/svg">
<g clip-path="url(#clip0_8_2149)">
<path d="M36.1111 13.8889H11.1111C8.16426 13.8889 5.33811 15.0595 3.25437 17.1433C1.17063 19.227 0 22.0532 0 25L0 50H36.1111V13.8889ZM23.1583 39.7L17.9306 35.9028L12.7028 39.7L14.7 33.5556L9.47222 29.7556H15.9333L17.9306 23.6111L19.9278 29.7556H26.3889L21.1611 33.5556L23.1583 39.7Z" fill="#1F429B"/>
<path d="M88.8891 13.8889H36.1113V50H100V25C100 22.0532 98.8296 19.227 96.7458 17.1433C94.6621 15.0595 91.836 13.8889 88.8891 13.8889Z" fill="#EEEEEE"/>
<path d="M0 50V75C0 77.9468 1.17063 80.773 3.25437 82.8567C5.33811 84.9405 8.16426 86.1111 11.1111 86.1111H88.8889C91.8357 86.1111 94.6619 84.9405 96.7456 82.8567C98.8294 80.773 100 77.9468 100 75V50H0Z" fill="#D42D27"/>
<path d="M19.9277 29.7556L17.9305 23.6111L15.9333 29.7556H9.47217L14.6999 33.5556L12.7027 39.7L17.9305 35.9028L23.1583 39.7L21.1611 33.5556L26.3888 29.7556H19.9277Z" fill="white"/>
</g>
<defs>
<clipPath id="clip0_8_2149">
<rect width="100" height="100" fill="white"/>
</clipPath>
</defs>
</svg>
