<svg width="100" height="100" viewBox="0 0 100 100" fill="none" xmlns="http://www.w3.org/2000/svg">
<g clip-path="url(#clip0_8_2145)">
<path d="M100 75C100 77.9468 98.8294 80.773 96.7457 82.8567C94.662 84.9405 91.8358 86.1111 88.889 86.1111H66.6667V13.8889H88.889C91.8358 13.8889 94.662 15.0595 96.7457 17.1433C98.8294 19.227 100 22.0532 100 25V75Z" fill="#CE2B37"/>
<path d="M11.1111 13.8889C8.16426 13.8889 5.33811 15.0595 3.25437 17.1433C1.17063 19.227 0 22.0532 0 25L0 75C0 77.9468 1.17063 80.773 3.25437 82.8567C5.33811 84.9405 8.16426 86.1111 11.1111 86.1111H33.3333V13.8889H11.1111Z" fill="#009246"/>
<path d="M33.3333 13.8889H66.6666V86.1111H33.3333V13.8889Z" fill="#EEEEEE"/>
</g>
<defs>
<clipPath id="clip0_8_2145">
<rect width="100" height="100" fill="white"/>
</clipPath>
</defs>
</svg>
